<svg width="252" height="113" viewBox="0 0 252 113" fill="none" xmlns="http://www.w3.org/2000/svg">
<rect x="0.589844" y="60.0332" width="250.895" height="52.3581" rx="26.1791" fill="white" fill-opacity="0.1"/>
<g style="mix-blend-mode:luminosity">
<path d="M206.466 72.9538C206.466 72.824 206.361 72.7187 206.231 72.7187C205.452 72.7187 204.82 72.0868 204.82 71.3075C204.82 71.1776 204.715 71.0723 204.585 71.0723C204.455 71.0723 204.35 71.1776 204.35 71.3075C204.35 72.0868 203.718 72.7187 202.938 72.7187C202.808 72.7187 202.703 72.824 202.703 72.9538C202.703 73.0837 202.808 73.189 202.938 73.189C203.718 73.189 204.35 73.8209 204.35 74.6002C204.35 74.7301 204.455 74.8354 204.585 74.8354C204.715 74.8354 204.82 74.7301 204.82 74.6002C204.82 73.8209 205.452 73.189 206.231 73.189C206.361 73.189 206.466 73.0837 206.466 72.9538Z" fill="#DEDEDE"/>
</g>
<g style="mix-blend-mode:luminosity">
<path d="M212.11 72.5775C212.11 72.3697 211.941 72.2012 211.733 72.2012C211.525 72.2012 211.357 72.3697 211.357 72.5775C211.357 74.4477 209.841 75.9643 207.97 75.9643C207.762 75.9643 207.594 76.1329 207.594 76.3407C207.594 76.5485 207.762 76.717 207.97 76.717C209.841 76.717 211.357 78.2329 211.357 80.1038C211.357 80.3116 211.525 80.4801 211.733 80.4801C211.941 80.4801 212.11 80.3116 212.11 80.1038C212.11 78.2328 213.625 76.717 215.496 76.717C215.704 76.717 215.873 76.5485 215.873 76.3407C215.873 76.1329 215.704 75.9643 215.496 75.9643C213.626 75.9643 212.11 74.4477 212.11 72.5775Z" fill="#DEDEDE"/>
</g>
<g style="mix-blend-mode:luminosity">
<path d="M205.336 77.472C205.336 77.2642 205.168 77.0957 204.96 77.0957C204.752 77.0957 204.583 77.2642 204.583 77.472C204.583 78.7191 203.573 79.7299 202.326 79.7299C202.118 79.7299 201.949 79.8984 201.949 80.1062C201.949 80.314 202.118 80.4826 202.326 80.4826C203.573 80.4826 204.583 81.4934 204.583 82.7404C204.583 82.9483 204.752 83.1168 204.96 83.1168C205.168 83.1168 205.336 82.9483 205.336 82.7404C205.336 81.4934 206.347 80.4826 207.594 80.4826C207.802 80.4826 207.97 80.314 207.97 80.1062C207.97 79.8984 207.802 79.7299 207.594 79.7299C206.347 79.7299 205.336 78.7191 205.336 77.472Z" fill="#DEDEDE"/>
</g>
<g style="mix-blend-mode:luminosity">
<path d="M222.791 74.5847L203.3 90.4062C203.251 90.4468 203.212 90.4976 203.184 90.5551C203.156 90.6125 203.142 90.6753 203.141 90.739L203.14 92.1951C203.138 92.303 203.178 92.4073 203.253 92.4852C203.327 92.5632 203.43 92.6084 203.537 92.6109L208.169 92.6082C208.277 92.6108 208.379 92.656 208.453 92.7339C208.528 92.8118 208.568 92.9161 208.566 93.0241L208.544 96.5605C208.542 96.6379 208.561 96.7144 208.601 96.7809C208.64 96.8475 208.697 96.9014 208.766 96.9363C208.835 96.9712 208.913 96.9857 208.99 96.9779C209.066 96.9702 209.14 96.9406 209.2 96.8926L214.133 92.7084C214.206 92.6504 214.298 92.6209 214.392 92.6254L228.386 92.617" fill="#DEDEDE"/>
<path d="M222.938 84.4648C221.361 79.517 221.291 75.1183 222.781 74.64C224.271 74.1617 226.757 77.7849 228.333 82.7327C229.91 87.6804 229.98 92.0792 228.49 92.5575C227 93.0358 224.514 89.4126 222.938 84.4648Z" fill="#CDCDCD"/>
</g>
<ellipse cx="27.2243" cy="85.548" rx="15.7126" ry="15.6495" fill="#ECFDF3"/>
<path d="M27.5272 80.6919L28.5087 83.8652C28.5562 83.9974 28.667 84.0965 28.8095 84.0965H32.0071C32.3079 84.0965 32.4345 84.5097 32.1971 84.6915L29.601 86.6583C29.4902 86.7409 29.4427 86.8897 29.4902 87.0219L30.4716 90.1952C30.5666 90.4927 30.2342 90.7571 29.9809 90.5588L27.4006 88.6085C27.2898 88.5259 27.1315 88.5259 27.0207 88.6085L24.4562 90.5588C24.2029 90.7406 23.8705 90.4927 23.9655 90.1952L24.9469 87.0219C24.9944 86.8897 24.9469 86.7409 24.8361 86.6583L22.2558 84.6915C22.0026 84.5097 22.1292 84.0965 22.4458 84.0965H25.6435C25.7859 84.0965 25.8967 83.9974 25.9442 83.8652L26.9257 80.6919C27.0207 80.3944 27.4323 80.3944 27.5272 80.6919Z" fill="#002430"/>
<ellipse cx="47.9966" cy="85.6801" rx="15.5825" ry="15.52" fill="#CFD6FF"/>
<path d="M58.2836 101.527C55.9076 101.527 53.9883 99.6092 53.9883 97.2526C53.9883 94.8959 55.9076 92.9785 58.2836 92.9785C60.6596 92.9785 62.5789 94.8959 62.5789 97.2526C62.5789 99.6092 60.6596 101.527 58.2836 101.527Z" fill="white" stroke="#245146" stroke-width="2"/>
<rect x="41.0742" y="84.0898" width="13.8297" height="3.17056" rx="1" fill="#103000"/>
<rect x="72.457" y="76.0527" width="57.1875" height="7" rx="1" fill="white"/>
<rect opacity="0.2" x="72.457" y="91.0527" width="109.016" height="7" rx="1" fill="white"/>
<rect x="0.589844" y="0.0664062" width="250.895" height="52.3581" rx="26.1791" fill="white" fill-opacity="0.1"/>
<ellipse cx="27.2243" cy="26.2452" rx="15.7126" ry="15.6495" fill="#ECFDF3"/>
<path d="M63.0791 26.3774C63.0791 34.6708 56.3283 41.3974 47.9966 41.3974C39.6648 41.3974 32.9141 34.6708 32.9141 26.3774C32.9141 18.084 39.6648 11.3574 47.9966 11.3574C56.3283 11.3574 63.0791 18.084 63.0791 26.3774Z" fill="#245146" stroke="#548EFF"/>
<path d="M27.5272 21.3891L28.5087 24.5624C28.5562 24.6946 28.667 24.7938 28.8095 24.7938H32.0071C32.3079 24.7938 32.4345 25.207 32.1971 25.3888L29.601 27.3556C29.4902 27.4382 29.4427 27.587 29.4902 27.7192L30.4716 30.8925C30.5666 31.1899 30.2342 31.4544 29.9809 31.2561L27.4006 29.3058C27.2898 29.2232 27.1315 29.2232 27.0207 29.3058L24.4562 31.2561C24.2029 31.4379 23.8705 31.1899 23.9655 30.8925L24.9469 27.7192C24.9944 27.587 24.9469 27.4382 24.8361 27.3556L22.2558 25.3888C22.0026 25.207 22.1292 24.7938 22.4458 24.7938H25.6435C25.7859 24.7938 25.8967 24.6946 25.9442 24.5624L26.9257 21.3891C27.0207 21.0916 27.4323 21.0916 27.5272 21.3891Z" fill="#002430"/>
<ellipse cx="47.9979" cy="26.3778" rx="11.9237" ry="11.8758" fill="#DFFFCF"/>
<path d="M57.8446 40.8966C55.862 40.8966 54.2617 39.2969 54.2617 37.3321C54.2617 35.3673 55.862 33.7676 57.8446 33.7676C59.8272 33.7676 61.4275 35.3673 61.4275 37.3321C61.4275 39.2969 59.8272 40.8966 57.8446 40.8966Z" fill="#548EFF" stroke="#245146" stroke-width="2"/>
<rect x="41.0742" y="24.7871" width="13.8297" height="3.17056" rx="1" fill="#103000"/>
<g style="mix-blend-mode:luminosity">
<path d="M206.466 13.8933C206.466 13.7634 206.361 13.6581 206.231 13.6581C205.452 13.6581 204.82 13.0263 204.82 12.2469C204.82 12.117 204.715 12.0117 204.585 12.0117C204.455 12.0117 204.35 12.117 204.35 12.2469C204.35 13.0263 203.718 13.6581 202.938 13.6581C202.808 13.6581 202.703 13.7634 202.703 13.8933C202.703 14.0232 202.808 14.1285 202.938 14.1285C203.718 14.1285 204.35 14.7603 204.35 15.5397C204.35 15.6696 204.455 15.7749 204.585 15.7749C204.715 15.7749 204.82 15.6696 204.82 15.5397C204.82 14.7603 205.452 14.1285 206.231 14.1285C206.361 14.1285 206.466 14.0232 206.466 13.8933Z" fill="#DEDEDE"/>
</g>
<g style="mix-blend-mode:luminosity">
<path d="M212.11 13.5169C212.11 13.3091 211.941 13.1406 211.733 13.1406C211.525 13.1406 211.357 13.3091 211.357 13.5169C211.357 15.3871 209.841 16.9038 207.97 16.9038C207.762 16.9038 207.594 17.0723 207.594 17.2801C207.594 17.4879 207.762 17.6564 207.97 17.6564C209.841 17.6564 211.357 19.1724 211.357 21.0433C211.357 21.2511 211.525 21.4196 211.733 21.4196C211.941 21.4196 212.11 21.2511 212.11 21.0433C212.11 19.1723 213.625 17.6564 215.496 17.6564C215.704 17.6564 215.873 17.4879 215.873 17.2801C215.873 17.0723 215.704 16.9038 215.496 16.9038C213.626 16.9038 212.11 15.3872 212.11 13.5169Z" fill="#DEDEDE"/>
</g>
<g style="mix-blend-mode:luminosity">
<path d="M205.336 18.4115C205.336 18.2037 205.168 18.0352 204.96 18.0352C204.752 18.0352 204.583 18.2037 204.583 18.4115C204.583 19.6585 203.573 20.6694 202.326 20.6694C202.118 20.6694 201.949 20.8379 201.949 21.0457C201.949 21.2535 202.118 21.422 202.326 21.422C203.573 21.422 204.583 22.4329 204.583 23.6799C204.583 23.8877 204.752 24.0562 204.96 24.0562C205.168 24.0562 205.336 23.8877 205.336 23.6799C205.336 22.4329 206.347 21.422 207.594 21.422C207.802 21.422 207.97 21.2535 207.97 21.0457C207.97 20.8379 207.802 20.6694 207.594 20.6694C206.347 20.6694 205.336 19.6585 205.336 18.4115Z" fill="#DEDEDE"/>
</g>
<g style="mix-blend-mode:luminosity">
<path d="M222.791 15.5261L203.3 31.3476C203.251 31.3882 203.212 31.439 203.184 31.4965C203.156 31.5539 203.142 31.6167 203.141 31.6804L203.14 33.1365C203.138 33.2444 203.178 33.3487 203.253 33.4266C203.327 33.5046 203.43 33.5498 203.537 33.5524L208.169 33.5496C208.277 33.5522 208.379 33.5974 208.453 33.6753C208.528 33.7532 208.568 33.8575 208.566 33.9655L208.544 37.5019C208.542 37.5793 208.561 37.6558 208.601 37.7224C208.64 37.7889 208.697 37.8429 208.766 37.8777C208.835 37.9126 208.913 37.9271 208.99 37.9193C209.066 37.9116 209.14 37.882 209.2 37.834L214.133 33.6499C214.206 33.5918 214.298 33.5623 214.392 33.5668L228.386 33.5584" fill="#DEDEDE"/>
<path d="M222.938 25.4062C221.361 20.4585 221.291 16.0597 222.781 15.5814C224.271 15.1031 226.757 18.7263 228.333 23.6741C229.91 28.6219 229.98 33.0206 228.49 33.4989C227 33.9772 224.514 30.354 222.938 25.4062Z" fill="#CDCDCD"/>
</g>
<rect x="72.457" y="16.0859" width="57.1875" height="7" rx="1" fill="white"/>
<rect opacity="0.2" x="72.457" y="31.0859" width="109.016" height="7" rx="1" fill="white"/>
</svg>
