<svg width="250" height="82" viewBox="0 0 250 82" fill="none" xmlns="http://www.w3.org/2000/svg">
<path d="M249.728 41.0376C249.728 58.7498 235.369 73.1084 217.657 73.1084C199.945 73.1084 185.586 58.7498 185.586 41.0376C185.586 23.3254 199.945 8.9668 217.657 8.9668C235.369 8.9668 249.728 23.3254 249.728 41.0376Z" fill="white"/>
<path d="M246.062 41.0368C246.062 56.7271 233.342 69.4466 217.652 69.4466C201.962 69.4466 189.242 56.7271 189.242 41.0368C189.242 25.3465 201.962 12.627 217.652 12.627C233.342 12.627 246.062 25.3465 246.062 41.0368Z" fill="#00A04A"/>
<path d="M227.098 62.2087C227.098 56.1898 231.977 51.3105 237.996 51.3105C244.015 51.3105 248.894 56.1898 248.894 62.2087C248.894 68.2276 244.015 73.1068 237.996 73.1068C231.977 73.1068 227.098 68.2276 227.098 62.2087Z" fill="black"/>
<path fill-rule="evenodd" clip-rule="evenodd" d="M229.184 62.2087C229.184 67.0754 233.129 71.0206 237.996 71.0206C242.862 71.0206 246.808 67.0754 246.808 62.2087C246.808 57.342 242.862 53.3968 237.996 53.3968C233.129 53.3968 229.184 57.342 229.184 62.2087ZM237.996 51.3105C231.977 51.3105 227.098 56.1898 227.098 62.2087C227.098 68.2276 231.977 73.1068 237.996 73.1068C244.015 73.1068 248.894 68.2276 248.894 62.2087C248.894 56.1898 244.015 51.3105 237.996 51.3105Z" fill="white"/>
<path d="M239.858 61.3202H238.996L239.229 59.27L239.483 57.0312L238.14 58.8461L235.674 62.1776L234.965 63.1359H236.161H237.044L236.869 65.1975L236.683 67.3834L237.964 65.5976L240.351 62.271L241.033 61.3202H239.858Z" fill="white"/>
<path d="M224.547 50.1689C223.212 50.1689 222.1 49.9557 221.209 49.5291C220.319 49.0841 219.652 48.5278 219.207 47.8602C218.762 47.174 218.539 46.4694 218.539 45.7461L220.542 47.3039C220.894 47.8602 221.413 48.296 222.1 48.6112C222.804 48.9079 223.527 49.0563 224.269 49.0563C225.734 49.0563 226.791 48.6112 227.44 47.7211C228.108 46.831 228.442 45.6627 228.442 44.2163C228.442 42.7513 228.117 41.5459 227.468 40.6001C226.819 39.6359 225.836 39.1537 224.52 39.1537C223.778 39.1537 223.027 39.3206 222.266 39.6544C221.506 39.9882 220.839 40.5167 220.264 41.2399L219.429 41.0174L220.264 31.2539H231.251V34.119H221.209L220.792 39.3206C221.163 39.0054 221.682 38.7179 222.35 38.4583C223.036 38.1801 223.963 38.0411 225.131 38.0411C226.559 38.0411 227.783 38.2914 228.803 38.7921C229.823 39.2928 230.602 39.9882 231.14 40.8783C231.696 41.7684 231.974 42.7884 231.974 43.9381C231.974 45.162 231.659 46.2468 231.029 47.1926C230.398 48.1198 229.526 48.8523 228.414 49.3901C227.301 49.9093 226.012 50.1689 224.547 50.1689ZM220.542 47.3039L218.539 45.7461C218.539 45.1156 218.725 44.615 219.095 44.2441C219.466 43.8732 219.902 43.6877 220.403 43.6877C220.922 43.6877 221.358 43.8639 221.71 44.2163C222.062 44.5686 222.239 45.0044 222.239 45.5236C222.239 46.0058 222.072 46.423 221.738 46.7753C221.423 47.1091 221.024 47.2853 220.542 47.3039Z" fill="white"/>
<path d="M210.478 50.1697C209.384 50.1697 208.429 49.9843 207.613 49.6134C206.797 49.224 206.158 48.7233 205.694 48.1113C205.23 47.4808 204.999 46.8225 204.999 46.1364C204.999 45.543 205.184 45.0608 205.555 44.6899C205.926 44.3191 206.371 44.1336 206.89 44.1336C207.391 44.1336 207.817 44.3191 208.17 44.6899C208.522 45.0423 208.698 45.4781 208.698 45.9973C208.698 46.4053 208.559 46.7762 208.281 47.11C208.021 47.4252 207.632 47.6385 207.113 47.7497C207.428 48.1762 207.882 48.5008 208.476 48.7233C209.088 48.9458 209.718 49.0571 210.367 49.0571C211.461 49.0571 212.333 48.6955 212.982 47.9723C213.631 47.249 214.085 46.192 214.345 44.8012C214.623 43.4104 214.762 41.6951 214.762 39.6552C214.762 37.6895 214.595 36.1596 214.261 35.0655C213.946 33.9714 213.501 33.2019 212.926 32.7568C212.37 32.3117 211.739 32.0892 211.035 32.0892C210.126 32.0892 209.366 32.4694 208.754 33.2297C208.16 33.99 207.864 35.149 207.864 36.7067C207.864 38.2459 208.17 39.3956 208.782 40.1559C209.412 40.9162 210.145 41.2964 210.979 41.2964C211.702 41.2964 212.426 41.0368 213.149 40.5175C213.891 39.9983 214.567 39.1545 215.179 37.9862V39.7108C214.734 40.5453 214.113 41.2129 213.316 41.7136C212.537 42.2143 211.582 42.4646 210.451 42.4646C209.746 42.4646 209.032 42.3627 208.309 42.1587C207.604 41.9361 206.955 41.6116 206.362 41.1851C205.768 40.74 205.286 40.1744 204.915 39.4883C204.563 38.7836 204.387 37.9584 204.387 37.0127C204.387 35.696 204.702 34.5927 205.332 33.7025C205.982 32.8124 206.825 32.1356 207.864 31.672C208.902 31.2084 209.996 30.9766 211.146 30.9766C212.055 30.9766 212.936 31.1249 213.789 31.4216C214.66 31.6998 215.43 32.1727 216.097 32.8402C216.765 33.4893 217.293 34.3609 217.683 35.455C218.091 36.5491 218.295 37.9121 218.295 39.5439C218.295 41.8249 217.97 43.7535 217.321 45.3297C216.691 46.906 215.791 48.1113 214.623 48.9458C213.473 49.7618 212.092 50.1697 210.478 50.1697Z" fill="white"/>
<path opacity="0.3" d="M31.4834 5.44938L4.84204 12.5879C2.25626 13.2808 0.698173 15.9285 1.37962 18.4716L17.0736 77.0422C17.755 79.5854 20.4282 81.0993 23.014 80.4065L63.7596 69.4887C66.3454 68.7959 67.9034 66.1482 67.222 63.605L55.245 18.9064L31.4834 5.44938Z" fill="#19443A"/>
<g clip-path="url(#clip0_2325_4256)">
<mask id="mask0_2325_4256" style="mask-type:luminance" maskUnits="userSpaceOnUse" x="4" y="8" width="61" height="70">
<path d="M31.5694 8.12571L7.45142 14.5881C5.11056 15.2153 3.71148 17.6549 4.34235 20.0093L18.8715 74.2329C19.5024 76.5873 21.9338 78.0005 24.2747 77.3733L61.161 67.4896C63.5018 66.8624 64.9009 64.4228 64.27 62.0684L53.182 20.6873L31.5694 8.12571Z" fill="white"/>
</mask>
<g mask="url(#mask0_2325_4256)">
<path d="M31.5694 8.12571L7.45142 14.5881C5.11056 15.2153 3.71148 17.6549 4.34235 20.0093L18.8715 74.2329C19.5024 76.5873 21.9338 78.0005 24.2747 77.3733L61.161 67.4896C63.5018 66.8624 64.9009 64.4228 64.27 62.0684L53.182 20.6873L41.3393 16.2136L31.5694 8.12571Z" fill="#4285F4"/>
</g>
<mask id="mask1_2325_4256" style="mask-type:luminance" maskUnits="userSpaceOnUse" x="4" y="8" width="61" height="70">
<path d="M31.5694 8.12571L7.45142 14.5881C5.11056 15.2153 3.71148 17.6549 4.34235 20.0093L18.8715 74.2329C19.5024 76.5873 21.9338 78.0005 24.2747 77.3733L61.161 67.4896C63.5018 66.8624 64.9009 64.4228 64.27 62.0684L53.182 20.6873L31.5694 8.12571Z" fill="white"/>
</mask>
<g mask="url(#mask1_2325_4256)">
<path d="M37.0664 23.6641L57.0976 35.3035L53.1814 20.6881L37.0664 23.6641Z" fill="url(#paint0_linear_2325_4256)"/>
</g>
<mask id="mask2_2325_4256" style="mask-type:luminance" maskUnits="userSpaceOnUse" x="4" y="8" width="61" height="70">
<path d="M31.5694 8.12571L7.45142 14.5881C5.11056 15.2153 3.71148 17.6549 4.34235 20.0093L18.8715 74.2329C19.5024 76.5873 21.9338 78.0005 24.2747 77.3733L61.161 67.4896C63.5018 66.8624 64.9009 64.4228 64.27 62.0684L53.182 20.6873L31.5694 8.12571Z" fill="white"/>
</mask>
<g mask="url(#mask2_2325_4256)">
<path d="M26.7805 58.3494L49.4798 52.2672L48.7151 49.4133L26.0158 55.4956L26.7805 58.3494ZM28.3099 64.0572L45.3343 59.4955L44.5696 56.6416L27.5452 61.2033L28.3099 64.0572ZM22.957 44.0801L23.7217 46.9339L46.421 40.8517L45.6563 37.9978L22.957 44.0801ZM25.2511 52.6417L47.9504 46.5594L47.1857 43.7056L24.4864 49.7878L25.2511 52.6417Z" fill="#F1F1F1"/>
</g>
<mask id="mask3_2325_4256" style="mask-type:luminance" maskUnits="userSpaceOnUse" x="4" y="8" width="61" height="70">
<path d="M31.5694 8.12571L7.45142 14.5881C5.11056 15.2153 3.71148 17.6549 4.34235 20.0093L18.8715 74.2329C19.5024 76.5873 21.9338 78.0005 24.2747 77.3733L61.161 67.4896C63.5018 66.8624 64.9009 64.4228 64.27 62.0684L53.182 20.6873L31.5694 8.12571Z" fill="white"/>
</mask>
<g mask="url(#mask3_2325_4256)">
<path d="M31.5703 8.125L35.0114 20.9674C35.6452 23.3326 38.0631 24.7379 40.4146 24.1078L53.1829 20.6865L31.5703 8.125Z" fill="#A1C2FA"/>
</g>
<mask id="mask4_2325_4256" style="mask-type:luminance" maskUnits="userSpaceOnUse" x="4" y="8" width="61" height="70">
<path d="M31.5694 8.12571L7.45142 14.5881C5.11056 15.2153 3.71148 17.6549 4.34235 20.0093L18.8715 74.2329C19.5024 76.5873 21.9338 78.0005 24.2747 77.3733L61.161 67.4896C63.5018 66.8624 64.9009 64.4228 64.27 62.0684L53.182 20.6873L31.5694 8.12571Z" fill="white"/>
</mask>
<g mask="url(#mask4_2325_4256)">
<path d="M7.45142 14.5881C5.11056 15.2153 3.71148 17.6549 4.34235 20.0093L4.43794 20.3661C3.80707 18.0116 5.20615 15.5721 7.54701 14.9448L31.665 8.48244L31.5694 8.12571L7.45142 14.5881Z" fill="white" fill-opacity="0.2"/>
</g>
<mask id="mask5_2325_4256" style="mask-type:luminance" maskUnits="userSpaceOnUse" x="4" y="8" width="61" height="70">
<path d="M31.5694 8.12571L7.45142 14.5881C5.11056 15.2153 3.71148 17.6549 4.34235 20.0093L18.8715 74.2329C19.5024 76.5873 21.9338 78.0005 24.2747 77.3733L61.161 67.4896C63.5018 66.8624 64.9009 64.4228 64.27 62.0684L53.182 20.6873L31.5694 8.12571Z" fill="white"/>
</mask>
<g mask="url(#mask5_2325_4256)">
<path d="M61.0668 67.1337L24.1805 77.0173C21.8396 77.6446 19.4082 76.2314 18.7773 73.877L18.8729 74.2337C19.5038 76.5881 21.9352 78.0013 24.2761 77.3741L61.1624 67.4904C63.5032 66.8632 64.9023 64.4236 64.2714 62.0692L64.1759 61.7125C64.8067 64.0669 63.4076 66.5065 61.0668 67.1337Z" fill="#1A237E" fill-opacity="0.2"/>
</g>
<mask id="mask6_2325_4256" style="mask-type:luminance" maskUnits="userSpaceOnUse" x="4" y="8" width="61" height="70">
<path d="M31.5694 8.12571L7.45142 14.5881C5.11056 15.2153 3.71148 17.6549 4.34235 20.0093L18.8715 74.2329C19.5024 76.5873 21.9338 78.0005 24.2747 77.3733L61.161 67.4896C63.5018 66.8624 64.9009 64.4228 64.27 62.0684L53.182 20.6873L31.5694 8.12571Z" fill="white"/>
</mask>
<g mask="url(#mask6_2325_4256)">
<path d="M40.4149 24.1091C38.0634 24.7392 35.6455 23.3339 35.0117 20.9688L35.1073 21.3255C35.741 23.6906 38.159 25.096 40.5105 24.4659L53.2788 21.0446L53.1832 20.6879L40.4149 24.1091Z" fill="#1A237E" fill-opacity="0.1"/>
</g>
<path d="M31.5694 8.12571L7.45142 14.5881C5.11056 15.2153 3.71148 17.6549 4.34235 20.0093L18.8715 74.2329C19.5024 76.5873 21.9338 78.0005 24.2747 77.3733L61.161 67.4896C63.5018 66.8624 64.9009 64.4228 64.27 62.0684L53.182 20.6873L31.5694 8.12571Z" fill="url(#paint1_radial_2325_4256)"/>
</g>
<defs>
<linearGradient id="paint0_linear_2325_4256" x1="862.634" y1="-51.5241" x2="1251.36" y2="1399.21" gradientUnits="userSpaceOnUse">
<stop stop-color="#1A237E" stop-opacity="0.2"/>
<stop offset="1" stop-color="#1A237E" stop-opacity="0.02"/>
</linearGradient>
<radialGradient id="paint1_radial_2325_4256" cx="0" cy="0" r="1" gradientUnits="userSpaceOnUse" gradientTransform="translate(180.078 100.566) rotate(-15) scale(7578.68 7578.68)">
<stop stop-color="white" stop-opacity="0.1"/>
<stop offset="1" stop-color="white" stop-opacity="0"/>
</radialGradient>
<clipPath id="clip0_2325_4256">
<rect width="47" height="65" fill="white" transform="translate(3.19531 15.7285) rotate(-15)"/>
</clipPath>
</defs>
</svg>
