<svg width="252" height="113" viewBox="0 0 252 113" fill="none" xmlns="http://www.w3.org/2000/svg">
<rect x="0.589844" y="0.125" width="250.895" height="112.323" rx="8" fill="white" fill-opacity="0.1"/>
<ellipse cx="218.138" cy="31.3546" rx="15.7126" ry="15.6495" fill="#ECFDF3"/>
<path d="M218.441 26.4985L219.423 29.6718C219.47 29.804 219.581 29.9032 219.724 29.9032H222.921C223.222 29.9032 223.349 30.3164 223.111 30.4982L220.515 32.4649C220.404 32.5476 220.357 32.6963 220.404 32.8285L221.386 36.0018C221.481 36.2993 221.148 36.5638 220.895 36.3654L218.315 34.4152C218.204 34.3325 218.046 34.3325 217.935 34.4152L215.37 36.3654C215.117 36.5472 214.785 36.2993 214.88 36.0018L215.861 32.8285C215.908 32.6963 215.861 32.5476 215.75 32.4649L213.17 30.4982C212.917 30.3164 213.043 29.9032 213.36 29.9032H216.558C216.7 29.9032 216.811 29.804 216.858 29.6718L217.84 26.4985C217.935 26.201 218.346 26.201 218.441 26.4985Z" fill="#245146"/>
<ellipse cx="33.0708" cy="79.6411" rx="15.5825" ry="15.52" fill="#CFD6FF"/>
<path d="M39.0625 91.2135C39.0625 88.8568 40.9818 86.9395 43.3578 86.9395C45.7338 86.9395 47.6531 88.8568 47.6531 91.2135C47.6531 93.5702 45.7338 95.4875 43.3578 95.4875C40.9818 95.4875 39.0625 93.5702 39.0625 91.2135Z" fill="white" stroke="#245146" stroke-width="2"/>
<rect x="26.1484" y="78.0508" width="13.8297" height="3.17056" rx="1" fill="#103000"/>
<ellipse cx="68.2388" cy="79.6411" rx="15.5825" ry="15.52" fill="#FFEFCF"/>
<path d="M78.5258 95.4875C76.1497 95.4875 74.2305 93.5702 74.2305 91.2135C74.2305 88.8568 76.1497 86.9395 78.5258 86.9395C80.9018 86.9395 82.8211 88.8568 82.8211 91.2135C82.8211 93.5702 80.9018 95.4875 78.5258 95.4875Z" fill="white" stroke="#245146" stroke-width="2"/>
<rect x="61.3164" y="78.0508" width="13.8297" height="3.17056" rx="1" fill="#103000"/>
<ellipse cx="103.399" cy="79.6411" rx="15.5825" ry="15.52" fill="#CFF6FF"/>
<path d="M113.686 95.4875C111.31 95.4875 109.391 93.5702 109.391 91.2135C109.391 88.8568 111.31 86.9395 113.686 86.9395C116.062 86.9395 117.981 88.8568 117.981 91.2135C117.981 93.5702 116.062 95.4875 113.686 95.4875Z" fill="white" stroke="#245146" stroke-width="2"/>
<rect x="96.4766" y="78.0508" width="13.8297" height="3.17056" rx="1" fill="#103000"/>
<rect x="17.9766" y="17.0039" width="57.1875" height="7" rx="1" fill="white"/>
<rect opacity="0.2" x="17.9766" y="32.0039" width="148.027" height="7" rx="1" fill="white"/>
<rect opacity="0.2" x="17.9766" y="47.0039" width="109.016" height="7" rx="1" fill="white"/>
<path d="M153.669 79.6411C153.669 87.9345 146.918 94.661 138.586 94.661C130.255 94.661 123.504 87.9345 123.504 79.6411C123.504 71.3477 130.255 64.6211 138.586 64.6211C146.918 64.6211 153.669 71.3477 153.669 79.6411Z" fill="#245146" stroke="#548EFF"/>
<ellipse cx="138.588" cy="79.6414" rx="11.9237" ry="11.8758" fill="#DFFFCF"/>
<path d="M144.852 90.5958C144.852 88.6309 146.452 87.0312 148.434 87.0312C150.417 87.0312 152.017 88.6309 152.017 90.5958C152.017 92.5606 150.417 94.1603 148.434 94.1603C146.452 94.1603 144.852 92.5606 144.852 90.5958Z" fill="#548EFF" stroke="#245146" stroke-width="2"/>
<rect x="131.664" y="78.0508" width="13.8297" height="3.17056" rx="1" fill="#103000"/>
</svg>
