<svg width="250" height="72" viewBox="0 0 250 72" fill="none" xmlns="http://www.w3.org/2000/svg">
<path d="M249.728 36.397C249.728 54.1092 235.369 68.4678 217.657 68.4678C199.945 68.4678 185.586 54.1092 185.586 36.397C185.586 18.6848 199.945 4.32617 217.657 4.32617C235.369 4.32617 249.728 18.6848 249.728 36.397Z" fill="white"/>
<path d="M246.062 36.3962C246.062 52.0865 233.342 64.806 217.652 64.806C201.962 64.806 189.242 52.0865 189.242 36.3962C189.242 20.7058 201.962 7.98633 217.652 7.98633C233.342 7.98633 246.062 20.7058 246.062 36.3962Z" fill="#00A04A"/>
<path d="M227.098 57.5681C227.098 51.5492 231.977 46.6699 237.996 46.6699V46.6699C244.015 46.6699 248.894 51.5492 248.894 57.5681V57.5681C248.894 63.5869 244.015 68.4662 237.996 68.4662V68.4662C231.977 68.4662 227.098 63.5869 227.098 57.5681V57.5681Z" fill="black"/>
<path fill-rule="evenodd" clip-rule="evenodd" d="M229.184 57.5681C229.184 62.4348 233.129 66.38 237.996 66.38C242.862 66.38 246.808 62.4348 246.808 57.5681C246.808 52.7014 242.862 48.7561 237.996 48.7561C233.129 48.7561 229.184 52.7014 229.184 57.5681ZM237.996 46.6699C231.977 46.6699 227.098 51.5492 227.098 57.5681C227.098 63.5869 231.977 68.4662 237.996 68.4662C244.015 68.4662 248.894 63.5869 248.894 57.5681C248.894 51.5492 244.015 46.6699 237.996 46.6699Z" fill="white"/>
<path d="M239.858 56.6795H238.996L239.229 54.6294L239.483 52.3906L238.14 54.2055L235.674 57.537L234.965 58.4953H236.161H237.044L236.869 60.5569L236.683 62.7427L237.964 60.957L240.351 57.6304L241.033 56.6795H239.858Z" fill="white"/>
<path d="M224.547 45.5283C223.212 45.5283 222.1 45.315 221.209 44.8885C220.319 44.4435 219.652 43.8871 219.207 43.2195C218.762 42.5334 218.539 41.8287 218.539 41.1055L220.542 42.6632C220.894 43.2195 221.413 43.6553 222.1 43.9706C222.804 44.2673 223.527 44.4156 224.269 44.4156C225.734 44.4156 226.791 43.9706 227.44 43.0805C228.108 42.1903 228.442 41.0221 228.442 39.5756C228.442 38.1106 228.117 36.9053 227.468 35.9595C226.819 34.9952 225.836 34.5131 224.52 34.5131C223.778 34.5131 223.027 34.68 222.266 35.0138C221.506 35.3476 220.839 35.8761 220.264 36.5993L219.429 36.3768L220.264 26.6133H231.251V29.4783H221.209L220.792 34.68C221.163 34.3647 221.682 34.0773 222.35 33.8177C223.036 33.5395 223.963 33.4004 225.131 33.4004C226.559 33.4004 227.783 33.6508 228.803 34.1515C229.823 34.6522 230.602 35.3476 231.14 36.2377C231.696 37.1278 231.974 38.1477 231.974 39.2975C231.974 40.5214 231.659 41.6062 231.029 42.552C230.398 43.4792 229.526 44.2117 228.414 44.7494C227.301 45.2687 226.012 45.5283 224.547 45.5283ZM220.542 42.6632L218.539 41.1055C218.539 40.475 218.725 39.9743 219.095 39.6034C219.466 39.2326 219.902 39.0471 220.403 39.0471C220.922 39.0471 221.358 39.2233 221.71 39.5756C222.062 39.928 222.239 40.3638 222.239 40.883C222.239 41.3651 222.072 41.7824 221.738 42.1347C221.423 42.4685 221.024 42.6447 220.542 42.6632Z" fill="white"/>
<path d="M210.478 45.5291C209.384 45.5291 208.429 45.3437 207.613 44.9728C206.797 44.5834 206.158 44.0827 205.694 43.4707C205.23 42.8402 204.999 42.1819 204.999 41.4958C204.999 40.9024 205.184 40.4202 205.555 40.0493C205.926 39.6784 206.371 39.493 206.89 39.493C207.391 39.493 207.817 39.6784 208.17 40.0493C208.522 40.4017 208.698 40.8374 208.698 41.3567C208.698 41.7647 208.559 42.1355 208.281 42.4693C208.021 42.7846 207.632 42.9978 207.113 43.1091C207.428 43.5356 207.882 43.8601 208.476 44.0827C209.088 44.3052 209.718 44.4165 210.367 44.4165C211.461 44.4165 212.333 44.0549 212.982 43.3316C213.631 42.6084 214.085 41.5514 214.345 40.1606C214.623 38.7698 214.762 37.0544 214.762 35.0146C214.762 33.0489 214.595 31.519 214.261 30.4249C213.946 29.3308 213.501 28.5612 212.926 28.1162C212.37 27.6711 211.739 27.4486 211.035 27.4486C210.126 27.4486 209.366 27.8287 208.754 28.589C208.16 29.3494 207.864 30.5084 207.864 32.0661C207.864 33.6052 208.17 34.755 208.782 35.5153C209.412 36.2756 210.145 36.6557 210.979 36.6557C211.702 36.6557 212.426 36.3961 213.149 35.8769C213.891 35.3577 214.567 34.5139 215.179 33.3456V35.0702C214.734 35.9047 214.113 36.5723 213.316 37.073C212.537 37.5737 211.582 37.824 210.451 37.824C209.746 37.824 209.032 37.722 208.309 37.518C207.604 37.2955 206.955 36.971 206.362 36.5445C205.768 36.0994 205.286 35.5338 204.915 34.8477C204.563 34.143 204.387 33.3178 204.387 32.372C204.387 31.0554 204.702 29.952 205.332 29.0619C205.982 28.1718 206.825 27.4949 207.864 27.0313C208.902 26.5677 209.996 26.3359 211.146 26.3359C212.055 26.3359 212.936 26.4843 213.789 26.781C214.66 27.0592 215.43 27.532 216.097 28.1996C216.765 28.8487 217.293 29.7202 217.683 30.8143C218.091 31.9084 218.295 33.2714 218.295 34.9033C218.295 37.1843 217.97 39.1128 217.321 40.6891C216.691 42.2653 215.791 43.4707 214.623 44.3052C213.473 45.1211 212.092 45.5291 210.478 45.5291Z" fill="white"/>
<path opacity="0.3" fill-rule="evenodd" clip-rule="evenodd" d="M57.8352 5.30472L60.1986 14.1251L60.1971 14.126L60.1977 14.1258L68.0757 43.5269L68.0768 43.5268L58.2375 60.3437L58.2356 60.3396L58.2365 60.3431L28.4934 68.3127L28.4934 68.3136L19.5705 70.7045C17.1055 71.365 14.5802 69.9264 13.9273 67.4897L11.5639 58.6693L11.5658 58.6685L11.5638 58.669L1.32233 20.4473C0.669439 18.0107 2.13713 15.5021 4.6021 14.8417L43.2682 4.48111L43.2692 4.48463L43.2691 4.48087L52.192 2.08998C54.657 1.42949 57.1823 2.86809 57.8352 5.30472ZM24.9483 55.083L24.9459 55.0833L24.9482 55.0826L24.9484 55.0826L24.9486 55.0836L24.9483 55.083ZM46.8135 17.7122L46.816 17.7115L46.8142 17.7115L46.8126 17.7091L46.8133 17.7117L46.8135 17.7122ZM54.6916 47.1134L54.6926 47.117L54.6924 47.1132L54.6916 47.1134Z" fill="#19443A"/>
<g clip-path="url(#clip0_2392_2261)">
<path d="M45.814 19.1886L18.3672 26.543L25.637 53.6743L53.0838 46.3199L45.814 19.1886Z" fill="white"/>
<path d="M56.3573 58.5287L65.437 43.0101L58.9824 43.6233L53.0859 46.3196L53.4549 52.2054L56.3573 58.5287Z" fill="#EA4335"/>
<path d="M13.2869 56.983L15.4678 65.1224C16.0703 67.3709 18.4007 68.6984 20.6753 68.0889L28.9094 65.8826L28.5418 59.4382L25.638 53.6735L18.63 54.435L13.2869 56.983Z" fill="#188038"/>
<path d="M58.1676 15.8789L55.9867 7.73947C55.3842 5.49096 53.0538 4.16343 50.7792 4.77292L42.5451 6.97923C42.605 10.2083 42.8263 12.5371 43.2091 13.9657C43.5919 15.3943 44.461 17.1352 45.8165 19.1883C48.7554 19.2296 50.9175 19.0646 52.3029 18.6934C53.6883 18.3222 55.6432 17.384 58.1676 15.8789Z" fill="#1967D2"/>
<path d="M58.1675 15.878L45.8164 19.1875L53.0862 46.3188L65.4373 43.0094L58.1675 15.878Z" fill="#FBBC04"/>
<path d="M53.0835 46.3195L25.6367 53.6738L28.9081 65.8829L56.3549 58.5286L53.0835 46.3195Z" fill="#34A853"/>
<path d="M42.544 6.97877L6.86311 16.5394C4.58846 17.1489 3.23408 19.4638 3.83657 21.7123L13.2873 56.983L25.6384 53.6735L18.3686 26.5422L45.8154 19.1879L42.544 6.97877Z" fill="#4285F4"/>
<path d="M29.6362 46.0802C28.4268 45.67 27.4486 44.8599 26.7065 43.6411L28.8276 42.0331C29.2618 42.7892 29.8083 43.3189 30.4669 43.6222C31.122 43.9264 31.8329 43.9722 32.5946 43.7681C33.3734 43.5595 33.9797 43.1462 34.4135 42.5283C34.8474 41.9105 34.9688 41.2382 34.7752 40.5158C34.5771 39.7765 34.1203 39.2519 33.4048 38.942C32.6893 38.6321 31.8855 38.5967 31.0003 38.8338L29.6246 39.2025L29.0003 36.8726L30.2354 36.5416C30.997 36.3375 31.5841 35.9621 31.9965 35.4154C32.409 34.8687 32.5207 34.2427 32.3307 33.5339C32.1617 32.9031 31.7939 32.4637 31.2265 32.2122C30.659 31.9608 30.018 31.929 29.301 32.1211C28.6011 32.3087 28.0943 32.6407 27.7817 33.1207C27.4696 33.6016 27.2857 34.1525 27.2472 34.7215L24.6303 34.3831C24.7081 33.4245 25.0738 32.4977 25.7354 31.6044C26.3969 30.7111 27.3808 30.0876 28.6845 29.7382C29.6486 29.4799 30.5657 29.4305 31.4332 29.5942C32.3008 29.758 33.0418 30.1083 33.652 30.6427C34.2631 31.1805 34.6756 31.8551 34.8937 32.669C35.1163 33.4999 35.102 34.2562 34.8516 34.9412C34.6013 35.6262 34.2219 36.2004 33.7145 36.6671L33.7518 36.8062C34.597 36.9126 35.3955 37.2453 36.0615 37.7685C36.7362 38.2965 37.1984 39.0196 37.4455 39.9421C37.6927 40.8645 37.6768 41.7521 37.3969 42.6013C37.117 43.4506 36.6144 44.1959 35.895 44.8321C35.1721 45.4693 34.2919 45.9305 33.2523 46.2091C32.049 46.5351 30.8456 46.4904 29.6362 46.0802ZM41.1323 30.4812L39.0187 33.0504L37.1863 31.4404L40.9803 26.8398L42.778 26.3581L47.0045 42.1316L44.4382 42.8192L41.1323 30.4812Z" fill="#4285F4"/>
</g>
<defs>
<clipPath id="clip0_2392_2261">
<rect width="53.9885" height="53.368" fill="white" transform="translate(2.74609 17.6426) rotate(-15)"/>
</clipPath>
</defs>
</svg>
