<svg width="41" height="30" viewBox="0 0 41 30" fill="none" xmlns="http://www.w3.org/2000/svg">
<rect width="39.3033" height="29.4775" transform="translate(0.832031 0.431641)" fill="white"/>
<path fill-rule="evenodd" clip-rule="evenodd" d="M28.1386 0.534L39.903 9.18678C40.0919 9.32326 40.1729 9.56892 40.1189 9.81459L35.6128 23.8174C35.5318 24.0357 35.343 24.1995 35.1001 24.1995H16.1043C15.9693 24.1995 15.8614 24.2268 15.7535 24.3087L9.06177 29.7951C8.68401 30.0681 8.17134 29.8224 8.17134 29.3584L8.19832 24.7181C8.19832 24.4179 7.95548 24.1722 7.65866 24.1722H1.37169C1.07488 24.1722 0.832031 23.9265 0.832031 23.6263V21.7156C0.832031 21.5518 0.912979 21.388 1.04789 21.2788L27.491 0.534C27.6799 0.397521 27.9497 0.397521 28.1386 0.534ZM29.9997 9.89696L28.3268 4.65616C28.1649 4.16484 27.4633 4.16484 27.3014 4.65616L25.6285 9.89696C25.5476 10.1153 25.3587 10.2791 25.1158 10.2791H19.6653C19.1257 10.2791 18.9098 10.9615 19.3415 11.2618L23.7397 14.51C23.9286 14.6464 24.0095 14.8921 23.9286 15.1105L22.2557 20.3513C22.0938 20.8426 22.6604 21.252 23.0921 20.9518L27.4633 17.7309C27.6522 17.5944 27.922 17.5944 28.1109 17.7309L32.5091 20.9518C32.9408 21.2793 33.5075 20.8426 33.3456 20.3513L31.6726 15.1105C31.5917 14.8921 31.6726 14.6464 31.8615 14.51L36.2867 11.2618C36.6914 10.9615 36.4756 10.2791 35.9629 10.2791H30.5124C30.2695 10.2791 30.0807 10.1153 29.9997 9.89696Z" fill="#242501"/>
</svg>
