<svg width="52" height="52" viewBox="0 0 52 52" fill="none" xmlns="http://www.w3.org/2000/svg">
<rect width="52" height="52" rx="16" fill="#242501"/>
<path fill-rule="evenodd" clip-rule="evenodd" d="M32.2325 14.0833L41.8109 21.1283C41.9647 21.2394 42.0306 21.4394 41.9866 21.6394L38.3178 33.0402C38.2519 33.218 38.0982 33.3513 37.9004 33.3513H22.4344C22.3245 33.3513 22.2366 33.3736 22.1488 33.4402L16.7005 37.9072C16.3929 38.1295 15.9755 37.9294 15.9755 37.5516L15.9975 33.7736C15.9975 33.5291 15.7998 33.3291 15.5581 33.3291H10.4394C10.1977 33.3291 10 33.1291 10 32.8846V31.329C10 31.1956 10.0659 31.0623 10.1758 30.9734L31.7052 14.0833C31.859 13.9722 32.0787 13.9722 32.2325 14.0833ZM33.7478 21.7065L32.3857 17.4395C32.2539 17.0395 31.6827 17.0395 31.5509 17.4395L30.1888 21.7065C30.1229 21.8843 29.9691 22.0176 29.7714 22.0176H25.3337C24.8943 22.0176 24.7186 22.5732 25.0701 22.8177L28.651 25.4623C28.8048 25.5734 28.8707 25.7734 28.8048 25.9512L27.4427 30.2182C27.3109 30.6182 27.7723 30.9516 28.1238 30.7071L31.6827 28.0847C31.8365 27.9736 32.0562 27.9736 32.21 28.0847L35.7909 30.7071C36.1424 30.9738 36.6037 30.6182 36.4719 30.2182L35.1098 25.9512C35.0439 25.7734 35.1098 25.5734 35.2636 25.4623L38.8665 22.8177C39.1961 22.5732 39.0203 22.0176 38.6029 22.0176H34.1652C33.9675 22.0176 33.8137 21.8843 33.7478 21.7065Z" fill="white"/>
</svg>
