<svg width="132" height="113" viewBox="0 0 132 113" fill="none" xmlns="http://www.w3.org/2000/svg">
<g clip-path="url(#clip0_2365_1858)">
<g style="mix-blend-mode:screen">
<path d="M26.2365 22.8882C25.9346 22.5863 25.9346 22.0968 26.2365 21.7949C28.0478 19.9836 28.0478 17.0469 26.2365 15.2356C25.9346 14.9337 25.9346 14.4443 26.2365 14.1424C26.5384 13.8405 27.0278 13.8405 27.3297 14.1424C29.141 15.9537 32.0777 15.9537 33.889 14.1424C34.1909 13.8405 34.6804 13.8405 34.9823 14.1424C35.2841 14.4443 35.2841 14.9337 34.9823 15.2356C33.1709 17.0469 33.1709 19.9836 34.9823 21.7949C35.2841 22.0968 35.2841 22.5863 34.9823 22.8882C34.6804 23.19 34.1909 23.19 33.889 22.8882C32.0777 21.0768 29.141 21.0768 27.3297 22.8882C27.0278 23.19 26.5384 23.19 26.2365 22.8882Z" fill="#242501"/>
</g>
<path d="M26.2365 22.8882C25.9346 22.5863 25.9346 22.0968 26.2365 21.7949C28.0478 19.9836 28.0478 17.0469 26.2365 15.2356C25.9346 14.9337 25.9346 14.4443 26.2365 14.1424C26.5384 13.8405 27.0278 13.8405 27.3297 14.1424C29.141 15.9537 32.0777 15.9537 33.889 14.1424C34.1909 13.8405 34.6804 13.8405 34.9823 14.1424C35.2841 14.4443 35.2841 14.9337 34.9823 15.2356C33.1709 17.0469 33.1709 19.9836 34.9823 21.7949C35.2841 22.0968 35.2841 22.5863 34.9823 22.8882C34.6804 23.19 34.1909 23.19 33.889 22.8882C32.0777 21.0768 29.141 21.0768 27.3297 22.8882C27.0278 23.19 26.5384 23.19 26.2365 22.8882Z" fill="#242501"/>
<g style="mix-blend-mode:screen">
<path d="M12.2469 35.1312C11.7639 34.6482 11.7639 33.865 12.2469 33.382C12.7298 32.8991 13.513 32.899 13.996 33.382C18.3424 37.7285 25.3914 37.729 29.7384 33.382C30.2213 32.8991 31.0046 32.8991 31.4875 33.382C31.9705 33.865 31.9705 34.6483 31.4875 35.1312C27.1404 39.4784 27.1395 46.5255 31.4875 50.8735C31.9705 51.3565 31.9705 52.1398 31.4875 52.6227C31.0046 53.1056 30.2213 53.1056 29.7384 52.6227C25.3902 48.2745 18.3442 48.2745 13.996 52.6227C13.5131 53.1056 12.7298 53.1056 12.2469 52.6227C11.7639 52.1398 11.7639 51.3565 12.2469 50.8735C16.5949 46.5255 16.5934 39.4777 12.2469 35.1312Z" fill="#242501"/>
</g>
<path d="M12.2469 35.1312C11.7639 34.6482 11.7639 33.865 12.2469 33.382C12.7298 32.8991 13.513 32.899 13.996 33.382C18.3424 37.7285 25.3914 37.729 29.7384 33.382C30.2213 32.8991 31.0046 32.8991 31.4875 33.382C31.9705 33.865 31.9705 34.6483 31.4875 35.1312C27.1404 39.4784 27.1395 46.5255 31.4875 50.8735C31.9705 51.3565 31.9705 52.1398 31.4875 52.6227C31.0046 53.1056 30.2213 53.1056 29.7384 52.6227C25.3902 48.2745 18.3442 48.2745 13.996 52.6227C13.5131 53.1056 12.7298 53.1056 12.2469 52.6227C11.7639 52.1398 11.7639 51.3565 12.2469 50.8735C16.5949 46.5255 16.5934 39.4777 12.2469 35.1312Z" fill="#242501"/>
<g style="mix-blend-mode:screen">
<path d="M39.355 30.7575C38.872 30.2745 38.872 29.4913 39.355 29.0083C39.838 28.5253 40.6212 28.5254 41.1041 29.0083C44.0023 31.9065 48.7009 31.9064 51.599 29.0083C52.082 28.5253 52.8652 28.5254 53.3482 29.0083C53.8311 29.4913 53.8312 30.2745 53.3482 30.7575C50.4501 33.6556 50.45 38.3542 53.3482 41.2524C53.8311 41.7353 53.8312 42.5185 53.3482 43.0015C52.8652 43.4845 52.082 43.4845 51.599 43.0015C48.7008 40.1034 44.0022 40.1034 41.1041 43.0015C40.6212 43.4845 39.8379 43.4845 39.355 43.0015C38.872 42.5186 38.872 41.7353 39.355 41.2524C42.2531 38.3543 42.2531 33.6556 39.355 30.7575Z" fill="#242501"/>
</g>
<path d="M39.355 30.7575C38.872 30.2745 38.872 29.4913 39.355 29.0083C39.838 28.5253 40.6212 28.5254 41.1041 29.0083C44.0023 31.9065 48.7009 31.9064 51.599 29.0083C52.082 28.5253 52.8652 28.5254 53.3482 29.0083C53.8311 29.4913 53.8312 30.2745 53.3482 30.7575C50.4501 33.6556 50.45 38.3542 53.3482 41.2524C53.8311 41.7353 53.8312 42.5185 53.3482 43.0015C52.8652 43.4845 52.082 43.4845 51.599 43.0015C48.7008 40.1034 44.0022 40.1034 41.1041 43.0015C40.6212 43.4845 39.8379 43.4845 39.355 43.0015C38.872 42.5186 38.872 41.7353 39.355 41.2524C42.2531 38.3543 42.2531 33.6556 39.355 30.7575Z" fill="#242501"/>
<path d="M95.6796 19.4591L23.6404 77.9365C23.4591 78.0865 23.3126 78.2743 23.2109 78.4867C23.1092 78.6991 23.0548 78.931 23.0514 79.1664L23.0482 84.5482C23.0404 84.9471 23.1905 85.3326 23.4657 85.6206C23.7409 85.9087 24.1187 86.0757 24.5167 86.0853L41.6359 86.075C42.0339 86.0846 42.4118 86.2516 42.687 86.5396C42.9621 86.8277 43.1122 87.2132 43.1045 87.6121L43.023 100.683C43.0133 100.969 43.0854 101.252 43.2308 101.498C43.3762 101.744 43.5887 101.943 43.8434 102.072C44.0981 102.201 44.3844 102.254 44.6685 102.226C44.9527 102.197 45.2228 102.088 45.4472 101.911L63.6774 86.4456C63.9498 86.2311 64.2901 86.1221 64.636 86.1386L116.36 86.1076" fill="url(#paint0_linear_2365_1858)"/>
<path d="M96.2384 55.9717C90.4119 37.6845 90.1528 21.4266 95.6597 19.6587C101.167 17.8908 110.354 31.2824 116.181 49.5697C122.007 67.8569 122.266 84.1148 116.759 85.8827C111.252 87.6506 102.065 74.259 96.2384 55.9717Z" fill="url(#paint1_linear_2365_1858)"/>
</g>
<defs>
<linearGradient id="paint0_linear_2365_1858" x1="74.6863" y1="86.0198" x2="60.6278" y2="46.3876" gradientUnits="userSpaceOnUse">
<stop stop-color="#242501"/>
<stop offset="1" stop-color="#E1FF8D"/>
</linearGradient>
<linearGradient id="paint1_linear_2365_1858" x1="97.1092" y1="58.8855" x2="118.143" y2="52.6218" gradientUnits="userSpaceOnUse">
<stop stop-color="#171800"/>
<stop offset="1" stop-color="#5A5D00"/>
</linearGradient>
<clipPath id="clip0_2365_1858">
<rect width="132" height="113" fill="white"/>
</clipPath>
</defs>
</svg>
