<svg width="167" height="186" viewBox="0 0 167 186" fill="none" xmlns="http://www.w3.org/2000/svg">
<g clip-path="url(#clip0_2339_1779)">
<path d="M101.764 104.318L107.203 109.124L80.7012 197.733C80.7012 197.733 60.0462 203.719 58.2649 193.516C56.4836 183.313 59.6247 111.074 59.6247 111.074L64.7884 107.854L101.764 104.318Z" fill="url(#paint0_linear_2339_1779)"/>
<path d="M65.5387 30.0605C65.5387 30.0605 36.392 92.5048 66.5585 95.9728L64.7942 107.854L75.3971 124.816L101.76 104.318V72.3946C101.76 72.3946 108.47 74.0247 111.907 65.4994C115.344 56.9741 112.679 53.7103 109.575 52.7131C106.471 51.7159 103.116 40.7402 103.116 40.7402C103.116 40.7402 89.2565 33.9335 88.0769 33.5762C86.8973 33.2188 65.5387 30.0605 65.5387 30.0605Z" fill="white"/>
<path d="M101.313 57.3394L99.4096 65.1398L96.7852 53.075C96.7852 53.075 90.894 50.4476 91.7099 41.194C91.7099 41.194 69.4266 41.8304 63.8074 34.5745C58.1881 27.3186 61.5433 18.293 67.115 13.9401C72.6867 9.58726 81.3926 21.5602 88.4498 22.377C95.507 23.1938 102.727 22.1047 104.087 30.402C104.087 30.402 120.404 30.4701 109.591 52.7143C109.581 52.7143 104.869 49.7193 101.313 57.3394Z" fill="#242501"/>
<path d="M-45.6643 191.326L-14.7703 240.647C-6.98902 253.066 8.50217 254.877 19.0268 247.934C23.8542 244.737 27.3416 239.877 28.8274 234.276L30.9588 226.578L28.3786 245.354L131.66 247.256L138.184 301.128H176.777L153.464 152.743C152.674 147.711 150.854 142.898 148.118 138.605C145.382 134.311 141.789 130.63 137.565 127.793L107.201 109.129L70.1228 155.392L59.6398 111.086L37.3055 121.932C29.508 126.051 23.6625 133.101 21.0529 141.532L0.122565 209.17L-22.4326 172.71C-22.4326 172.71 -37.6587 203.183 -45.6643 191.326Z" fill="url(#paint1_linear_2339_1779)"/>
<path d="M75.4049 124.817L85.1204 136.674L107.203 109.124L101.767 104.318L75.4049 124.817Z" fill="#81916B"/>
<path d="M75.4062 124.816L64.6709 131.752L59.6431 111.073L64.8068 107.854L75.4062 124.816Z" fill="#81916B"/>
<path d="M66.5627 95.9731C66.5627 95.9731 77.5803 98.4235 84.5117 91.0723C84.5117 91.0723 77.8862 104.788 65.6041 102.487L66.5627 95.9731Z" fill="#E7E7E7"/>
<path d="M79.58 59.557C78.8524 59.4935 78.3564 58.3643 78.4721 57.0348C78.5878 55.7053 79.2714 54.679 79.999 54.7425C80.7266 54.806 81.2226 55.9352 81.1069 57.2647C80.9912 58.5942 80.3075 59.6205 79.58 59.557Z" fill="#242501"/>
<path d="M63.1854 57.1507C62.4579 57.0873 61.9619 55.958 62.0776 54.6286C62.1933 53.2991 62.8769 52.2728 63.6045 52.3362C64.3321 52.3997 64.8281 53.5289 64.7124 54.8584C64.5966 56.1879 63.913 57.2142 63.1854 57.1507Z" fill="#242501"/>
<path d="M78.3955 47.2711C79.6512 46.8852 80.9953 46.8972 82.2439 47.3054C83.4925 47.7136 84.5847 48.498 85.3711 49.5513" stroke="#242501" stroke-width="2" stroke-linejoin="round"/>
<path d="M67.6133 44.5482C66.9059 43.8316 65.9898 43.358 64.9967 43.1953C64.0035 43.0327 62.9844 43.1894 62.0858 43.6429" stroke="#242501" stroke-width="2" stroke-linejoin="round"/>
<path d="M69.0859 60.9434L65.6049 65.5685L68.746 67.2702" stroke="#E7E7E7" stroke-width="3" stroke-linecap="square"/>
<path d="M78.3945 74.3457C78.3945 74.3457 74.6552 80.7372 67.343 77.4393" stroke="#E7E7E7" stroke-width="3" stroke-linecap="square" stroke-linejoin="round"/>
</g>
<defs>
<linearGradient id="paint0_linear_2339_1779" x1="82.4606" y1="104.318" x2="81.9317" y2="142.867" gradientUnits="userSpaceOnUse">
<stop/>
<stop offset="1" stop-color="white" stop-opacity="0"/>
</linearGradient>
<linearGradient id="paint1_linear_2339_1779" x1="65.5565" y1="109.129" x2="65.3785" y2="174.067" gradientUnits="userSpaceOnUse">
<stop stop-color="#103000"/>
<stop offset="1" stop-color="white" stop-opacity="0"/>
</linearGradient>
<clipPath id="clip0_2339_1779">
<rect width="167" height="185" fill="white" transform="translate(0 0.501953)"/>
</clipPath>
</defs>
</svg>
