<svg width="30" height="26" viewBox="0 0 30 26" fill="none" xmlns="http://www.w3.org/2000/svg">
<rect width="28.6108" height="24.7443" transform="translate(0.648438 0.791016)" fill="white"/>
<g style="mix-blend-mode:screen">
<path d="M19.9787 4.65716C19.9787 4.39025 20.195 4.17389 20.4619 4.17389C22.0633 4.17389 23.3615 2.8757 23.3615 1.27428C23.3615 1.00738 23.5779 0.791015 23.8448 0.791015C24.1117 0.791015 24.3281 1.00738 24.3281 1.27428C24.3281 2.8757 25.6263 4.17389 27.2277 4.17389C27.4946 4.17389 27.7109 4.39026 27.7109 4.65716C27.7109 4.92406 27.4946 5.14043 27.2277 5.14043C25.6263 5.14043 24.3281 6.43861 24.3281 8.04003C24.3281 8.30694 24.1117 8.5233 23.8448 8.5233C23.5779 8.5233 23.3615 8.30694 23.3615 8.04003C23.3615 6.43861 22.0633 5.14043 20.4619 5.14043C20.195 5.14043 19.9787 4.92406 19.9787 4.65716Z" fill="#242501"/>
</g>
<path d="M19.9787 4.65716C19.9787 4.39025 20.195 4.17389 20.4619 4.17389C22.0633 4.17389 23.3615 2.8757 23.3615 1.27428C23.3615 1.00738 23.5779 0.791015 23.8448 0.791015C24.1117 0.791015 24.3281 1.00738 24.3281 1.27428C24.3281 2.8757 25.6263 4.17389 27.2277 4.17389C27.4946 4.17389 27.7109 4.39026 27.7109 4.65716C27.7109 4.92406 27.4946 5.14043 27.2277 5.14043C25.6263 5.14043 24.3281 6.43861 24.3281 8.04003C24.3281 8.30694 24.1117 8.5233 23.8448 8.5233C23.5779 8.5233 23.3615 8.30694 23.3615 8.04003C23.3615 6.43861 22.0633 5.14043 20.4619 5.14043C20.195 5.14043 19.9787 4.92406 19.9787 4.65716Z" fill="#242501"/>
<g style="mix-blend-mode:screen">
<path d="M8.37751 3.88456C8.37751 3.45752 8.72376 3.11133 9.15074 3.11133C9.57771 3.11133 9.92397 3.45752 9.92397 3.88456C9.92397 7.72732 13.0398 10.8436 16.883 10.8436C17.31 10.8436 17.6562 11.1899 17.6562 11.6168C17.6562 12.0438 17.31 12.3901 16.883 12.3901C13.0396 12.3901 9.92396 15.5049 9.92396 19.3491C9.92396 19.7761 9.57771 20.1224 9.15074 20.1224C8.72376 20.1224 8.37751 19.7761 8.37751 19.3491C8.37751 15.5048 5.26279 12.3901 1.41845 12.3901C0.991475 12.3901 0.645223 12.0438 0.645223 11.6168C0.645223 11.1899 0.991475 10.8436 1.41845 10.8436C5.26263 10.8436 8.37751 7.72738 8.37751 3.88456Z" fill="#242501"/>
</g>
<path d="M8.37751 3.88456C8.37751 3.45752 8.72376 3.11133 9.15074 3.11133C9.57771 3.11133 9.92397 3.45752 9.92397 3.88456C9.92397 7.72732 13.0398 10.8436 16.883 10.8436C17.31 10.8436 17.6562 11.1899 17.6562 11.6168C17.6562 12.0438 17.31 12.3901 16.883 12.3901C13.0396 12.3901 9.92396 15.5049 9.92396 19.3491C9.92396 19.7761 9.57771 20.1224 9.15074 20.1224C8.72376 20.1224 8.37751 19.7761 8.37751 19.3491C8.37751 15.5048 5.26279 12.3901 1.41845 12.3901C0.991475 12.3901 0.645223 12.0438 0.645223 11.6168C0.645223 11.1899 0.991475 10.8436 1.41845 10.8436C5.26263 10.8436 8.37751 7.72738 8.37751 3.88456Z" fill="#242501"/>
<g style="mix-blend-mode:screen">
<path d="M22.2988 13.9373C22.2988 13.5103 22.6449 13.1641 23.072 13.1641C23.499 13.1641 23.8452 13.5103 23.8452 13.9373C23.8452 16.4996 25.9223 18.5767 28.4846 18.5767C28.9116 18.5767 29.2578 18.9229 29.2578 19.3499C29.2578 19.7769 28.9116 20.1231 28.4846 20.1231C25.9223 20.1231 23.8452 22.2002 23.8452 24.7625C23.8452 25.1895 23.499 25.5357 23.072 25.5357C22.6449 25.5357 22.2988 25.1895 22.2988 24.7625C22.2988 22.2002 20.2216 20.1231 17.6594 20.1231C17.2324 20.1231 16.8862 19.7769 16.8862 19.3499C16.8862 18.9229 17.2324 18.5767 17.6594 18.5767C20.2216 18.5767 22.2988 16.4996 22.2988 13.9373Z" fill="#242501"/>
</g>
<path d="M22.2988 13.9373C22.2988 13.5103 22.6449 13.1641 23.072 13.1641C23.499 13.1641 23.8452 13.5103 23.8452 13.9373C23.8452 16.4996 25.9223 18.5767 28.4846 18.5767C28.9116 18.5767 29.2578 18.9229 29.2578 19.3499C29.2578 19.7769 28.9116 20.1231 28.4846 20.1231C25.9223 20.1231 23.8452 22.2002 23.8452 24.7625C23.8452 25.1895 23.499 25.5357 23.072 25.5357C22.6449 25.5357 22.2988 25.1895 22.2988 24.7625C22.2988 22.2002 20.2216 20.1231 17.6594 20.1231C17.2324 20.1231 16.8862 19.7769 16.8862 19.3499C16.8862 18.9229 17.2324 18.5767 17.6594 18.5767C20.2216 18.5767 22.2988 16.4996 22.2988 13.9373Z" fill="#242501"/>
</svg>
