<svg width="167" height="185" viewBox="0 0 167 185" fill="none" xmlns="http://www.w3.org/2000/svg">
<g clip-path="url(#clip0_2383_1877)">
<path d="M92.7786 116.099C77.8836 115.644 63.0042 117.417 48.6331 121.359L45.5059 122.217C41.3847 123.341 37.5256 125.267 34.1495 127.884C30.7733 130.502 27.9464 133.759 25.8305 137.47L11.6789 162.279C7.32284 169.916 9.71396 179.626 17.1178 184.367V184.367C23.2447 188.29 26.0821 195.761 24.1042 202.763L23.0248 206.583C18.9422 221.034 30.3084 235.205 45.3013 234.356L120.29 230.11C128.64 229.637 134.802 222.126 133.633 213.844L132.184 203.578C130.996 195.164 140.391 189.364 147.382 194.195V194.195C149.963 195.98 153.247 196.412 156.202 195.358L159.039 194.345C168.369 191.016 172.284 179.955 167.127 171.497L145.176 135.498C142.925 131.806 140.305 128.271 136.722 125.851C132.629 123.086 128.023 121.125 123.149 120.099L118.825 119.195C110.25 117.402 101.535 116.366 92.7786 116.099V116.099Z" fill="url(#paint0_linear_2383_1877)"/>
<path d="M71.7233 41.2556C71.7233 41.2556 44.439 98.3213 71.8793 103.292L70.2781 115.406C70.2781 115.406 74.0245 139.744 105.905 116.494L104.531 71.8373C104.531 71.8373 110.771 71.3599 111.041 58.4089C111.312 45.4579 100.711 39.8925 100.362 39.8464C100.013 39.8002 81.7293 32.8294 81.7293 32.8294L71.7233 41.2556Z" fill="white"/>
<path d="M99.2884 61.0861L96.8491 51.8296C96.8491 51.8296 91.432 50.6679 91.4294 43.5231C91.4294 43.5231 82.2014 51.8571 75.465 42.6593C75.465 42.6593 68.4439 44.4122 65.6515 37.8805C62.8591 31.3487 68.5736 23.8873 76.0023 26.4777C76.0023 26.4777 75.0684 24.7457 75.8236 23.7732C76.5789 22.8007 81.81 22.4198 83.5571 20.687C85.3041 18.9543 88.1219 19.2362 93.7407 22.0331C99.3595 24.83 113.808 44.0648 114.339 47.2616C114.871 50.4584 111.078 58.4455 111.078 58.4455C110.836 57.162 110.137 56.0096 109.111 55.2009C108.086 54.3921 106.802 53.9816 105.497 54.0451C100.554 53.9904 99.2884 61.0861 99.2884 61.0861Z" fill="#242501"/>
<path fill-rule="evenodd" clip-rule="evenodd" d="M114.589 46.9137C108.225 46.6992 89.7273 20.2722 89.7273 20.2722C89.2529 10.6905 103.038 5.02002 107.702 13.6723C110.037 18.0786 111.255 22.9743 111.269 27.9315C114.358 25.1768 121.063 19.8997 124.78 22.2728C129.033 24.9882 115.102 29.4737 111.155 30.6657C111.148 30.7487 111.141 30.8316 111.133 30.9146C111.133 30.9146 118 30.4853 120.47 34.0289C122.94 37.5725 120.953 47.1282 114.589 46.9137Z" fill="#81916B"/>
<path d="M71.9106 103.302C71.9106 103.302 80.465 106.173 92.0576 100.916L70.5247 113.786L71.9106 103.302Z" fill="#E7E7E7"/>
<path d="M73.7329 58.9871C74.5342 59.0931 75.3454 57.9564 75.5447 56.4482C75.7441 54.9401 75.2561 53.6317 74.4548 53.5258C73.6535 53.4198 72.8423 54.5566 72.643 56.0647C72.4436 57.5728 72.9316 58.8812 73.7329 58.9871Z" fill="#261B1D"/>
<path d="M89.2642 61.0399C90.0655 61.1458 90.8767 60.0091 91.076 58.501C91.2753 56.9929 90.7874 55.6844 89.9861 55.5785C89.1848 55.4726 88.3736 56.6093 88.1742 58.1174C87.9749 59.6255 88.4629 60.934 89.2642 61.0399Z" fill="#261B1D"/>
<path d="M80.1669 63.173C80.1669 63.173 77.1083 70.0872 77.3683 70.1216C77.6284 70.156 80.2473 71.3099 80.2473 71.3099" stroke="#E7E7E7" stroke-width="3" stroke-linecap="square" stroke-linejoin="round"/>
<path d="M90.3797 78.2771C90.3797 78.2771 88.1777 84.7684 80.5426 82.4222" stroke="#E7E7E7" stroke-width="3" stroke-linecap="square" stroke-linejoin="round"/>
<path d="M77.2028 49.8066C77.2028 49.8066 73.7112 47.8271 71.612 49.9589" stroke="#261B1D" stroke-width="2.52" stroke-linecap="round" stroke-linejoin="round"/>
<path d="M86.9725 50.2201C88.1952 49.9277 89.4732 49.96 90.6796 50.3137C91.886 50.6673 92.9791 51.3302 93.8504 52.2364" stroke="#261B1D" stroke-width="2.52" stroke-linecap="round" stroke-linejoin="round"/>
</g>
<defs>
<linearGradient id="paint0_linear_2383_1877" x1="99.2751" y1="115.62" x2="100.563" y2="174.133" gradientUnits="userSpaceOnUse">
<stop stop-color="#103000"/>
<stop offset="1" stop-color="white" stop-opacity="0"/>
</linearGradient>
<clipPath id="clip0_2383_1877">
<rect width="167" height="185" fill="white"/>
</clipPath>
</defs>
</svg>
